<?xml version="1.0" encoding="UTF-8"?>
<svg width="222px" height="187px" viewBox="0 0 222 187" version="1.1" xmlns="http://www.w3.org/2000/svg" xmlns:xlink="http://www.w3.org/1999/xlink">
    <!-- Generator: Sketch 52.5 (67469) - http://www.bohemiancoding.com/sketch -->
    <title>Group 14</title>
    <desc>Created with Sketch.</desc>
    <defs>
        <polygon id="path-1" points="0 0.057 221.7298 0.057 221.7298 186.9999 0 186.9999"></polygon>
    </defs>
    <g id="Symbols" stroke="none" stroke-width="1" fill="none" fill-rule="evenodd">
        <g id="Icon/Take" transform="translate(-14.000000, -32.000000)">
            <g id="Group-14" transform="translate(14.000000, 31.000000)">
                <path d="M153.9599,78.3428 C159.7499,78.3428 164.7899,81.6128 167.3199,86.4128 C167.3399,86.4428 167.3599,86.4728 167.3699,86.5128 C167.6699,87.0628 167.9199,87.6428 168.1399,88.2428 C168.1599,88.2728 168.1699,88.3028 168.1799,88.3428 C168.3599,88.8328 168.5099,89.3328 168.6399,89.8428 C168.6699,89.9528 168.6899,90.0528 168.7099,90.1628 C168.7199,90.1928 168.7299,90.2328 168.7299,90.2728 C168.9599,91.3028 169.0799,92.3728 169.0799,93.4728 C169.0799,101.8128 162.2999,108.6028 153.9599,108.6028 C148.3899,108.6028 143.4999,105.5728 140.8899,101.0628 C140.8699,101.0528 140.8699,101.0428 140.8699,101.0328 C140.6399,100.6428 140.4199,100.2428 140.2399,99.8228 L140.2399,99.8128 C140.1499,99.6328 140.0699,99.4628 139.9899,99.2728 C139.9799,99.2628 139.9799,99.2528 139.9699,99.2328 C139.7199,98.6328 139.5099,98.0128 139.3399,97.3728 C139.3399,97.3528 139.3299,97.3428 139.3299,97.3328 C138.9999,96.1028 138.8299,94.8028 138.8299,93.4728 C138.8299,85.1328 145.6199,78.3428 153.9599,78.3428 M135.5999,98.8228 C135.7799,99.4628 135.9999,100.0828 136.2499,100.6828 C136.2499,100.6928 136.2499,100.7028 136.2599,100.7128 C136.3199,100.8628 136.3799,101.0028 136.4499,101.1528 C136.6399,101.6128 136.8599,102.0628 137.0999,102.5028 C137.1099,102.5128 137.1099,102.5228 137.1099,102.5328 C140.3499,108.5228 146.6899,112.6028 153.9599,112.6028 C157.7699,112.6028 161.3299,111.4828 164.3099,109.5428 C167.4799,107.5028 170.0099,104.5328 171.5199,101.0328 C171.5299,101.0328 171.5299,101.0228 171.5299,101.0228 C172.5299,98.7028 173.0799,96.1528 173.0799,93.4728 C173.0799,91.8628 172.8799,90.3028 172.4999,88.8128 C172.4999,88.7728 172.4899,88.7328 172.4799,88.7028 L172.4799,88.6928 C172.4599,88.6328 172.4399,88.5728 172.4299,88.5128 C172.2799,87.9628 172.1099,87.4228 171.9199,86.8928 C171.8999,86.8528 171.8899,86.8228 171.8699,86.7828 C171.6499,86.1928 171.3999,85.6128 171.1199,85.0528 C171.1099,85.0228 171.0899,84.9828 171.0699,84.9528 C167.9399,78.6628 161.4399,74.3428 153.9599,74.3428 C143.4099,74.3428 134.8299,82.9228 134.8299,93.4728 C134.8299,95.3228 135.0899,97.1028 135.5899,98.7928 C135.5899,98.8028 135.5899,98.8128 135.5999,98.8228" id="Fill-1" fill="#8EC050"></path>
                <path d="M153.9599,87.9932 C155.6499,87.9932 157.1699,88.7632 158.1699,89.9832 C158.1899,90.0032 158.2099,90.0232 158.2299,90.0532 C158.6299,90.5532 158.9499,91.1332 159.1499,91.7532 C159.1599,91.7832 159.1699,91.8132 159.1799,91.8332 C159.3099,92.2332 159.3899,92.6532 159.4099,93.0832 C159.4299,93.2132 159.4299,93.3432 159.4299,93.4732 C159.4299,93.5832 159.4299,93.6832 159.4099,93.7932 C159.4199,93.8232 159.4199,93.8532 159.4099,93.8832 C159.1999,96.7132 156.8399,98.9532 153.9599,98.9532 C152.5099,98.9532 151.1899,98.3932 150.2099,97.4532 C150.1899,97.4432 150.1699,97.4232 150.1599,97.4032 C149.8899,97.1632 149.6599,96.8832 149.4599,96.5832 C149.2799,96.3332 149.1299,96.0632 148.9999,95.7832 C148.9899,95.7632 148.9799,95.7432 148.9699,95.7232 C148.6999,95.1432 148.5299,94.4932 148.4999,93.8232 C148.4899,93.8032 148.4899,93.7732 148.4999,93.7532 C148.4799,93.6632 148.4799,93.5632 148.4799,93.4732 C148.4799,90.4532 150.9399,87.9932 153.9599,87.9932 M144.6599,95.3132 C144.7899,95.9632 144.9799,96.5832 145.2299,97.1832 C145.2399,97.1932 145.2499,97.2132 145.2499,97.2332 C145.3599,97.4732 145.4699,97.7032 145.5899,97.9332 C145.7799,98.2832 145.9899,98.6232 146.2199,98.9432 C146.2299,98.9532 146.2399,98.9732 146.2499,98.9832 C147.9699,101.3832 150.7799,102.9532 153.9599,102.9532 C159.1799,102.9532 163.4299,98.7032 163.4299,93.4732 C163.4299,93.0932 163.4099,92.7232 163.3599,92.3532 C163.3599,92.3232 163.3599,92.2932 163.3499,92.2632 C163.3299,92.0832 163.2999,91.9132 163.2699,91.7332 C163.1799,91.2732 163.0699,90.8232 162.9099,90.3832 C162.8999,90.3532 162.8899,90.3232 162.8799,90.2932 C162.6699,89.6832 162.3899,89.1032 162.0599,88.5632 C162.0399,88.5332 162.0199,88.5032 162.0099,88.4832 C160.3299,85.7832 157.3499,83.9932 153.9599,83.9932 C148.7299,83.9932 144.4799,88.2432 144.4799,93.4732 C144.4799,94.0832 144.5399,94.6832 144.6499,95.2632 C144.6499,95.2832 144.6599,95.2932 144.6599,95.3132" id="Fill-3" fill="#8EC050"></path>
                <g id="Group-7" transform="translate(0.000000, 0.943000)">
                    <mask id="mask-2" fill="white">
                        <use xlink:href="#path-1"></use>
                    </mask>
                    <g id="Clip-6"></g>
                    <path d="M43.6098,110.5199 C47.2198,110.5199 50.1598,113.4599 50.1598,117.0699 C50.1598,120.6799 47.2198,123.6099 43.6098,123.6099 C39.9998,123.6099 37.0598,120.6799 37.0598,117.0699 C37.0598,113.4599 39.9998,110.5199 43.6098,110.5199 Z M43.6098,127.6099 C49.4198,127.6099 54.1598,122.8799 54.1598,117.0699 C54.1598,111.2499 49.4198,106.5199 43.6098,106.5199 C37.7898,106.5199 33.0598,111.2499 33.0598,117.0699 C33.0598,122.8799 37.7898,127.6099 43.6098,127.6099 Z M170.3698,124.2499 C181.8298,118.2999 189.6698,106.3299 189.6698,92.5999 L189.9598,84.7299 L199.5798,84.7299 L199.5798,97.0199 C199.5798,112.0299 187.3698,124.2499 172.3598,124.2499 L170.3698,124.2499 Z M151.1498,124.1199 L151.1398,124.1199 C151.0198,124.1199 150.8898,124.0999 150.7698,124.0899 C140.1098,123.0399 130.7898,116.7199 125.8498,107.2199 C125.6698,106.8699 125.4898,106.5199 125.3198,106.1599 L128.9298,104.7599 C133.4598,114.0099 142.9598,120.3799 153.9598,120.3799 C154.0798,120.3799 154.2098,120.3799 154.3298,120.3699 C169.5398,120.1799 181.8098,107.7899 181.8098,92.5299 C181.8098,91.1099 181.6998,89.7099 181.4998,88.3399 C181.3098,87.1099 181.0398,85.8999 180.6898,84.7299 L185.9498,84.7299 L185.6698,92.5299 C185.6698,110.0199 171.4498,124.2499 153.9598,124.2499 C153.0098,124.2499 152.0798,124.2099 151.1498,124.1199 Z M98.6798,124.2499 L98.6798,116.5499 L111.7298,111.4499 L115.7298,109.8899 L121.5798,107.6099 C124.9698,114.9199 130.6098,120.6899 137.4798,124.2499 L98.6798,124.2499 Z M153.9598,68.6799 C163.4398,68.6799 171.6498,74.2399 175.4998,82.2799 C175.5098,82.3199 175.5298,82.3599 175.5498,82.3999 C175.8198,82.9599 176.0598,83.5299 176.2798,84.1199 C176.2898,84.1599 176.3098,84.1999 176.3198,84.2399 C176.5398,84.8099 176.7298,85.3999 176.8998,85.9999 C176.8998,86.0099 176.9098,86.0199 176.8998,86.0299 C176.9198,86.0699 176.9298,86.1099 176.9398,86.1499 C177.5098,88.1799 177.8098,90.3199 177.8098,92.5299 L177.8098,92.6899 C177.7298,104.3899 169.1898,114.1199 158.0098,116.0199 C156.6998,116.2599 155.3398,116.3799 153.9598,116.3799 C144.6798,116.3799 136.6198,111.0599 132.6898,103.2999 C132.6898,103.2999 132.6698,103.2899 132.6798,103.2799 C132.4198,102.7899 132.1898,102.2899 131.9698,101.7799 L131.8498,101.4799 C131.8398,101.4799 131.8398,101.4699 131.8398,101.4699 C131.8398,101.4699 131.8398,101.4599 131.8498,101.4599 C131.5898,100.8499 131.3698,100.2299 131.1798,99.5899 L131.1698,99.5899 L131.1698,99.5699 C130.4698,97.3499 130.0998,94.9799 130.0998,92.5299 C130.0998,79.3799 140.7998,68.6799 153.9598,68.6799 Z M196.0598,71.5899 C196.0598,69.0999 197.2098,66.8699 199.0098,65.4199 C199.4898,66.0599 200.0998,66.6099 200.7898,67.0099 C200.1998,68.4199 199.8698,69.9699 199.8698,71.5899 L199.8698,80.7299 L196.0598,80.7299 L196.0598,71.5899 Z M202.8498,59.7099 C203.1898,59.4999 203.5798,59.3899 203.9998,59.3899 C204.6898,59.3899 205.3098,59.6999 205.7298,60.1999 C205.9298,60.4399 206.0898,60.7399 206.1798,61.0599 C206.2298,61.2499 206.2598,61.4499 206.2598,61.6499 C206.2598,62.2099 206.0598,62.7099 205.7298,63.0999 C205.3198,63.5899 204.6898,63.9099 203.9998,63.9099 C203.6698,63.9099 203.3598,63.8399 203.0698,63.7099 C203.0198,63.6899 202.9598,63.6599 202.9098,63.6399 C202.2098,63.2499 201.7398,62.5099 201.7398,61.6499 C201.7398,60.8299 202.1798,60.0999 202.8498,59.7099 Z M94.6798,176.5899 C94.6798,180.1299 91.7998,182.9999 88.2698,182.9999 L85.0098,182.9999 C86.4098,181.2299 87.2398,179.0099 87.2398,176.5899 L87.2398,49.8399 C87.2398,47.4099 86.4098,45.1899 85.0098,43.4199 L88.2698,43.4199 C91.7998,43.4199 94.6798,46.2999 94.6798,49.8399 L94.6798,176.5899 Z M83.2398,64.1899 L3.9998,64.1899 L3.9998,49.8399 C3.9998,46.2999 6.8798,43.4199 10.4198,43.4199 L76.8198,43.4199 C80.3598,43.4199 83.2398,46.2999 83.2398,49.8399 L83.2398,64.1899 Z M17.8998,130.2199 L17.8998,104.8499 C17.8998,102.2999 19.9598,100.2399 22.5098,100.2399 L30.8798,100.2399 L35.0398,91.9099 L52.1798,91.9099 L56.3498,100.2399 L64.7098,100.2399 C67.2498,100.2399 69.3198,102.2999 69.3198,104.8499 L69.3198,130.2199 C69.3198,132.7699 67.2498,134.8299 64.7098,134.8299 L22.5098,134.8299 C19.9598,134.8299 17.8998,132.7699 17.8998,130.2199 Z M83.2398,176.5899 C83.2398,180.1299 80.3598,182.9999 76.8198,182.9999 L10.4198,182.9999 C6.8798,182.9999 3.9998,180.1299 3.9998,176.5899 L3.9998,162.0299 L83.2398,162.0299 L83.2398,176.5899 Z M96.2398,17.6899 C91.0998,14.7299 87.6298,9.9299 87.1198,5.1799 C91.4798,3.2299 97.3698,3.7999 102.5198,6.7499 C107.6598,9.7099 111.1298,14.5099 111.6398,19.2599 C107.2798,21.2099 101.3798,20.6399 96.2398,17.6899 Z M126.5298,30.1999 C131.6698,27.2499 137.5698,26.6799 141.9198,28.6299 C141.4098,33.3799 137.9498,38.1799 132.7998,41.1299 C129.6698,42.9299 126.2598,43.8499 123.0898,43.8499 C121.0498,43.8499 119.1098,43.4699 117.4098,42.6999 C117.9198,37.9599 121.3798,33.1499 126.5298,30.1999 Z M210.0798,60.1999 C210.2498,59.9999 210.4398,59.8299 210.6598,59.7099 C210.9998,59.4999 211.3898,59.3899 211.8098,59.3899 C213.0498,59.3899 214.0698,60.4099 214.0698,61.6499 C214.0698,62.8999 213.0498,63.9099 211.8098,63.9099 C211.4798,63.9099 211.1598,63.8399 210.8798,63.7099 C210.5698,63.5699 210.2998,63.3599 210.0798,63.1099 C209.7498,62.7199 209.5498,62.2099 209.5498,61.6499 C209.5498,61.0999 209.7498,60.5899 210.0798,60.1999 Z M219.7298,124.2499 L187.6298,124.2499 C197.1398,118.8899 203.5798,108.6899 203.5798,97.0199 L203.5798,82.2399 L203.8698,82.2399 L203.8698,71.5899 C203.8698,70.2399 204.2098,68.9599 204.8098,67.8499 C205.9698,67.7099 207.0298,67.2399 207.8998,66.5399 C208.9698,67.3999 210.3298,67.9099 211.8098,67.9099 C215.2598,67.9099 218.0698,65.0999 218.0698,61.6499 C218.0698,58.1999 215.2598,55.3899 211.8098,55.3899 C210.3298,55.3899 208.9698,55.8999 207.8998,56.7599 C206.8298,55.8999 205.4698,55.3899 203.9998,55.3899 C200.6298,55.3899 197.8698,58.0799 197.7498,61.4199 C194.3398,63.5199 192.0598,67.2999 192.0598,71.5899 L192.0598,80.7299 L179.4798,80.7299 L179.2298,80.8299 C174.8198,71.2899 165.1598,64.6799 153.9598,64.6799 C138.5698,64.6799 126.0998,77.1499 126.0998,92.5299 C126.0998,95.4999 126.5598,98.3499 127.4298,101.0299 L121.9198,103.1799 L120.0398,103.9099 L115.7298,105.5999 L115.7298,46.3199 C117.9598,47.3199 120.4698,47.8299 123.0898,47.8299 C126.9598,47.8299 131.0698,46.7399 134.7998,44.5999 C141.5898,40.6999 145.9798,33.9699 145.9898,27.4499 L145.9898,26.2999 L144.9898,25.7199 C139.3598,22.4299 131.3298,22.8299 124.5298,26.7299 C120.7298,28.9099 117.6798,31.9899 115.7298,35.4199 L115.7298,19.2699 C115.7298,18.9899 115.6698,18.7199 115.5698,18.4699 C115.5698,18.4599 115.5598,18.4499 115.5498,18.4399 C114.7598,12.5699 110.6098,6.7899 104.5098,3.2799 C97.7198,-0.6201 89.6898,-1.0101 84.0498,2.2699 L83.0598,2.8499 L83.0598,3.9999 C83.0598,10.5199 87.4598,17.2599 94.2498,21.1599 C97.9798,23.2999 102.0798,24.3799 105.9498,24.3799 C107.9698,24.3799 109.9198,24.0899 111.7298,23.4899 L111.7298,107.1599 L98.6798,112.2499 L98.6798,49.8399 C98.6798,44.0899 94.0098,39.4199 88.2698,39.4199 L10.4198,39.4199 C4.6698,39.4199 -0.0002,44.0899 -0.0002,49.8399 L-0.0002,176.5899 C-0.0002,182.3299 4.6698,186.9999 10.4198,186.9999 L88.2698,186.9999 C94.0098,186.9999 98.6798,182.3299 98.6798,176.5899 L98.6798,128.2499 L219.7298,128.2499 C220.8398,128.2499 221.7298,127.3499 221.7298,126.2499 C221.7298,125.1399 220.8398,124.2499 219.7298,124.2499 Z M43.6098,123.6099 C39.9998,123.6099 37.0598,120.6799 37.0598,117.0699 C37.0598,113.4599 39.9998,110.5199 43.6098,110.5199 C47.2198,110.5199 50.1598,113.4599 50.1598,117.0699 C50.1598,120.6799 47.2198,123.6099 43.6098,123.6099 Z M43.6098,106.5199 C37.7898,106.5199 33.0598,111.2499 33.0598,117.0699 C33.0598,122.8799 37.7898,127.6099 43.6098,127.6099 C49.4198,127.6099 54.1598,122.8799 54.1598,117.0699 C54.1598,111.2499 49.4198,106.5199 43.6098,106.5199 Z M43.6098,123.6099 C39.9998,123.6099 37.0598,120.6799 37.0598,117.0699 C37.0598,113.4599 39.9998,110.5199 43.6098,110.5199 C47.2198,110.5199 50.1598,113.4599 50.1598,117.0699 C50.1598,120.6799 47.2198,123.6099 43.6098,123.6099 Z M43.6098,106.5199 C37.7898,106.5199 33.0598,111.2499 33.0598,117.0699 C33.0598,122.8799 37.7898,127.6099 43.6098,127.6099 C49.4198,127.6099 54.1598,122.8799 54.1598,117.0699 C54.1598,111.2499 49.4198,106.5199 43.6098,106.5199 Z" id="Fill-5" fill="#8EC050" mask="url(#mask-2)"></path>
                </g>
                <path d="M43.6201,178.563 C46.4401,178.563 48.7201,176.283 48.7201,173.463 C48.7201,170.643 46.4401,168.363 43.6201,168.363 C40.8001,168.363 38.5201,170.643 38.5201,173.463 C38.5201,176.283 40.8001,178.563 43.6201,178.563" id="Fill-8" fill="#8EC050"></path>
                <path d="M55.02,53.0332 L32.5,53.0332 C31.4,53.0332 30.5,53.9332 30.5,55.0332 C30.5,56.1432 31.4,57.0332 32.5,57.0332 L55.02,57.0332 C56.13,57.0332 57.02,56.1432 57.02,55.0332 C57.02,53.9332 56.13,53.0332 55.02,53.0332" id="Fill-10" fill="#8EC050"></path>
                <path d="M43.6098,124.5528 C39.9998,124.5528 37.0598,121.6228 37.0598,118.0128 C37.0598,114.4028 39.9998,111.4628 43.6098,111.4628 C47.2198,111.4628 50.1598,114.4028 50.1598,118.0128 C50.1598,121.6228 47.2198,124.5528 43.6098,124.5528 M43.6098,107.4628 C37.7898,107.4628 33.0598,112.1928 33.0598,118.0128 C33.0598,123.8228 37.7898,128.5528 43.6098,128.5528 C49.4198,128.5528 54.1598,123.8228 54.1598,118.0128 C54.1598,112.1928 49.4198,107.4628 43.6098,107.4628" id="Fill-12" fill="#8EC050"></path>
            </g>
        </g>
    </g>
</svg>