<?xml version="1.0" encoding="UTF-8"?>
<svg width="193px" height="161px" viewBox="0 0 193 161" version="1.1" xmlns="http://www.w3.org/2000/svg" xmlns:xlink="http://www.w3.org/1999/xlink">
    <!-- Generator: Sketch 52.5 (67469) - http://www.bohemiancoding.com/sketch -->
    <title>Group 10</title>
    <desc>Created with Sketch.</desc>
    <defs>
        <polygon id="path-1" points="0.4201 0.71 180.33 0.71 180.33 161 0.4201 161"></polygon>
    </defs>
    <g id="Symbols" stroke="none" stroke-width="1" fill="none" fill-rule="evenodd">
        <g id="Icon/Share" transform="translate(-29.000000, -45.000000)">
            <g id="Group-10" transform="translate(29.000000, 44.000000)">
                <polygon id="Fill-1" fill="#8EC050" points="1.9998 36.2395 -0.0002 36.2605 1.2908 150.3005 114.3298 149.0105 114.3098 147.0095 114.2898 145.0095 112.3098 145.0295 5.2398 146.2605 4.0198 38.2405 4.0008 36.2095"></polygon>
                <g id="Group-9" transform="translate(12.000000, 0.290000)">
                    <path d="M103.4001,51.49 C107.5101,47.17 107.4001,40.25 103.1401,36.07 C98.8501,31.86 91.9101,31.89 87.6601,36.14 C87.5101,36.3 87.3601,36.45 87.2201,36.62 C84.4401,39.74 80.5801,41.53 76.6301,41.53 C76.6101,41.52 76.5901,41.53 76.5701,41.53 C70.1201,41.53 64.0901,44.42 60.0001,49.47 C55.6301,54.88 54.3601,62.11 56.1701,68.58 L56.1801,68.59 C56.9501,71.38 58.3001,74.02 60.2101,76.32 L61.9901,74.54 L85.4201,51.11 C86.2001,50.32 87.4601,50.32 88.2401,51.11 C89.0301,51.89 89.0301,53.15 88.2401,53.93 L78.0701,64.1 L86.2401,64.1 C87.3401,64.1 88.2401,64.99 88.2401,66.1 C88.2401,67.2 87.3401,68.1 86.2401,68.1 L74.0701,68.1 L64.7801,77.39 L63.0301,79.14 C65.2001,80.95 67.6801,82.29 70.3501,83.09 C72.1101,83.63 73.9501,83.94 75.8401,84.01 C81.7201,84.21 87.4601,81.94 91.6101,77.79 C95.6501,73.75 97.8601,68.38 97.8201,62.66 C97.8001,58.67 99.5401,54.88 102.6001,52.25 C102.8701,52.02 103.1401,51.76 103.4001,51.49" id="Fill-2" fill="#8EC050"></path>
                    <g id="Group-6">
                        <mask id="mask-2" fill="white">
                            <use xlink:href="#path-1"></use>
                        </mask>
                        <g id="Clip-5"></g>
                        <path d="M110.9001,66.22 C112.5201,66.22 113.8301,67.53 113.8301,69.15 C113.8301,70.77 112.5201,72.08 110.9001,72.08 C109.2801,72.08 107.9701,70.77 107.9701,69.15 C107.9701,67.53 109.2801,66.22 110.9001,66.22 Z M54.2301,30.07 C54.2301,28.45 55.5501,27.14 57.1601,27.14 C58.7801,27.14 60.1001,28.45 60.1001,30.07 C60.1001,31.69 58.7801,33 57.1601,33 C55.5501,33 54.2301,31.69 54.2301,30.07 Z M34.6901,34.95 C34.6901,31.18 37.7601,28.11 41.5301,28.11 C45.3101,28.11 48.3701,31.18 48.3701,34.95 C48.3701,38.73 45.3101,41.79 41.5301,41.79 C37.7601,41.79 34.6901,38.73 34.6901,34.95 Z M76.5701,88.02 C76.2801,88.02 75.9901,88.01 75.7001,88 C75.5001,87.99 75.3101,87.98 75.1101,87.96 C69.5401,87.66 64.3701,85.56 60.1901,81.98 L50.5201,91.65 C50.1301,92.04 49.6201,92.24 49.1101,92.24 C48.6001,92.24 48.0901,92.04 47.7001,91.65 C46.9101,90.87 46.9101,89.61 47.7001,88.83 L57.3801,79.15 C53.6101,74.76 51.6101,69.26 51.4101,63.7 C51.1901,57.76 53.0101,51.76 56.8901,46.96 C61.7401,40.96 68.9101,37.53 76.5701,37.53 L76.6301,37.53 C79.4401,37.53 82.2101,36.22 84.2301,33.95 C84.4301,33.74 84.6301,33.52 84.8401,33.31 C90.6301,27.52 100.0901,27.48 105.9401,33.21 C111.7501,38.92 111.9101,48.36 106.2901,54.25 C105.9401,54.62 105.5801,54.96 105.2001,55.29 C103.0401,57.15 101.8101,59.82 101.8201,62.64 C101.8601,69.43 99.2401,75.82 94.4301,80.62 C89.7101,85.35 83.2401,88.02 76.5701,88.02 Z M18.1301,118.93 L18.1301,63.69 L18.1301,29.63 L18.1301,4.71 L132.3401,4.71 L132.3401,92.97 C128.7901,94.36 125.5101,96.31 122.6201,98.71 L122.6201,14.44 L27.8601,14.44 L27.8601,39.59 L27.8601,73.29 L27.8601,109.2 L64.2701,109.2 L95.8501,109.2 L114.0601,109.2 C112.4401,112.21 111.2501,115.48 110.5701,118.93 L105.3501,118.93 L74.1301,118.93 L18.1301,118.93 Z M145.1201,157 C131.2301,157 119.4301,147.89 115.3901,135.33 C115.1801,134.68 114.9901,134.01 114.8201,133.33 C114.6601,132.68 114.5101,132.01 114.4001,131.34 C114.1801,130.16 114.0401,128.96 113.9601,127.74 C113.9201,127.1 113.9001,126.45 113.9001,125.79 C113.9001,124.83 113.9401,123.87 114.0301,122.93 C114.0901,122.26 114.1701,121.59 114.2801,120.93 C114.3801,120.25 114.5101,119.59 114.6601,118.93 C115.4501,115.43 116.8201,112.15 118.6801,109.2 C119.8201,107.39 121.1401,105.7 122.6201,104.17 C125.3701,101.3 128.6701,98.96 132.3401,97.3 C133.0001,97.01 133.6601,96.74 134.3401,96.49 C134.9901,96.25 135.6601,96.02 136.3401,95.83 C139.1301,95.01 142.0701,94.57 145.1201,94.57 C162.3301,94.57 176.3301,108.57 176.3301,125.79 C176.3301,143 162.3301,157 145.1201,157 Z M145.1201,90.57 C142.0901,90.57 139.1501,90.95 136.3401,91.68 L136.3401,0.71 L14.1301,0.71 L14.1301,25.53 L14.1301,59.75 L14.1301,122.93 L78.1901,122.93 L109.2601,122.93 L110.0101,122.93 C110.0001,123.17 109.9801,123.41 109.9701,123.65 C109.9201,124.36 109.9001,125.07 109.9001,125.79 C109.9001,127.69 110.0501,129.56 110.3501,131.38 L87.0301,131.65 L5.7401,132.59 L4.8001,50.55 L4.4601,20.97 L6.6261,20.937 L7.6571,20.921 L7.6571,16.921 L0.4201,17.05 L0.7601,46.56 L1.7901,136.64 L91.0401,135.61 L91.0501,135.61 L111.2301,135.37 C115.4101,150.15 129.0201,161 145.1201,161 C164.5301,161 180.3301,145.21 180.3301,125.79 C180.3301,106.37 164.5301,90.57 145.1201,90.57 Z" id="Fill-4" fill="#8EC050" mask="url(#mask-2)"></path>
                    </g>
                    <path d="M146.7199,108.9602 C146.3399,108.4602 145.7599,108.1702 145.1299,108.1702 C144.5099,108.1702 143.9199,108.4602 143.5399,108.9502 L136.3399,118.3602 L132.8399,122.9302 L130.8599,125.5202 C130.1799,126.4002 130.3499,127.6502 131.2299,128.3202 C132.1099,129.0002 133.3599,128.8302 134.0299,127.9502 L143.1299,116.0702 L143.0999,141.4002 C143.0999,142.5102 143.9899,143.4002 145.0999,143.4002 C146.1999,143.4002 147.0999,142.5102 147.0999,141.4102 L147.1299,116.0802 L156.1999,127.9802 C156.5899,128.4902 157.1899,128.7602 157.7899,128.7602 C158.2099,128.7602 158.6399,128.6302 158.9999,128.3502 C159.8799,127.6802 160.0499,126.4302 159.3799,125.5502 L146.7199,108.9602 Z" id="Fill-7" fill="#8EC050"></path>
                </g>
            </g>
        </g>
    </g>
</svg>