<?xml version="1.0" encoding="utf-8"?>
<!-- Generator: Adobe Illustrator 25.2.3, SVG Export Plug-In . SVG Version: 6.00 Build 0)  -->
<svg version="1.1" id="Layer_1" xmlns="http://www.w3.org/2000/svg" xmlns:xlink="http://www.w3.org/1999/xlink" x="0px" y="0px"
	 viewBox="0 0 50 50" style="enable-background:new 0 0 50 50;" xml:space="preserve">
<style type="text/css">
	.st0{fill:#72983E;}
</style>
<path class="st0" d="M43.37,17.78c0-9.64-8.22-17.45-18.37-17.45c-10.15,0-18.37,7.81-18.37,17.45c0,3.48,1.08,6.71,2.93,9.43H9.55
	l13.93,21.64c0.69,1.08,2.35,1.08,3.04,0l13.93-21.64h-0.01C42.29,24.49,43.37,21.26,43.37,17.78z M25,28.15
	c-5.44,0-9.85-4.41-9.85-9.85c0-5.44,4.41-9.85,9.85-9.85s9.85,4.41,9.85,9.85C34.85,23.74,30.44,28.15,25,28.15z"/>
</svg>
